<svg width="61" height="41" viewBox="0 0 61 41" fill="none" xmlns="http://www.w3.org/2000/svg">
<path d="M13.8043 18.464V24.896C13.8043 25.344 13.9083 25.672 14.1163 25.88C14.3403 26.072 14.7083 26.168 15.2203 26.168H16.7803V29H14.6683C11.8363 29 10.4203 27.624 10.4203 24.872V18.464H8.83625V15.704H10.4203V12.416H13.8043V15.704H16.7803V18.464H13.8043ZM17.6129 22.352C17.6129 20.976 17.8929 19.776 18.4529 18.752C19.0129 17.712 19.7889 16.912 20.7809 16.352C21.7729 15.776 22.9089 15.488 24.1889 15.488C25.8369 15.488 27.1969 15.904 28.2689 16.736C29.3569 17.552 30.0849 18.704 30.4529 20.192H26.8289C26.6369 19.616 26.3089 19.168 25.8449 18.848C25.3969 18.512 24.8369 18.344 24.1649 18.344C23.2049 18.344 22.4449 18.696 21.8849 19.4C21.3249 20.088 21.0449 21.072 21.0449 22.352C21.0449 23.616 21.3249 24.6 21.8849 25.304C22.4449 25.992 23.2049 26.336 24.1649 26.336C25.5249 26.336 26.4129 25.728 26.8289 24.512H30.4529C30.0849 25.952 29.3569 27.096 28.2689 27.944C27.1809 28.792 25.8209 29.216 24.1889 29.216C22.9089 29.216 21.7729 28.936 20.7809 28.376C19.7889 27.8 19.0129 27 18.4529 25.976C17.8929 24.936 17.6129 23.728 17.6129 22.352ZM31.3304 22.304C31.3304 20.96 31.5944 19.768 32.1224 18.728C32.6664 17.688 33.3944 16.888 34.3064 16.328C35.2344 15.768 36.2664 15.488 37.4024 15.488C38.3944 15.488 39.2584 15.688 39.9944 16.088C40.7464 16.488 41.3464 16.992 41.7944 17.6V15.704H45.1784V29H41.7944V27.056C41.3624 27.68 40.7624 28.2 39.9944 28.616C39.2424 29.016 38.3704 29.216 37.3784 29.216C36.2584 29.216 35.2344 28.928 34.3064 28.352C33.3944 27.776 32.6664 26.968 32.1224 25.928C31.5944 24.872 31.3304 23.664 31.3304 22.304ZM41.7944 22.352C41.7944 21.536 41.6344 20.84 41.3144 20.264C40.9944 19.672 40.5624 19.224 40.0184 18.92C39.4744 18.6 38.8904 18.44 38.2664 18.44C37.6424 18.44 37.0664 18.592 36.5384 18.896C36.0104 19.2 35.5784 19.648 35.2424 20.24C34.9224 20.816 34.7624 21.504 34.7624 22.304C34.7624 23.104 34.9224 23.808 35.2424 24.416C35.5784 25.008 36.0104 25.464 36.5384 25.784C37.0824 26.104 37.6584 26.264 38.2664 26.264C38.8904 26.264 39.4744 26.112 40.0184 25.808C40.5624 25.488 40.9944 25.04 41.3144 24.464C41.6344 23.872 41.7944 23.168 41.7944 22.352ZM49.4441 14.12C48.8521 14.12 48.3561 13.936 47.9561 13.568C47.5721 13.184 47.3801 12.712 47.3801 12.152C47.3801 11.592 47.5721 11.128 47.9561 10.76C48.3561 10.376 48.8521 10.184 49.4441 10.184C50.0361 10.184 50.5241 10.376 50.9081 10.76C51.3081 11.128 51.5081 11.592 51.5081 12.152C51.5081 12.712 51.3081 13.184 50.9081 13.568C50.5241 13.936 50.0361 14.12 49.4441 14.12ZM51.1001 15.704V29H47.7401V15.704H51.1001Z" fill="#141414"/>
</svg>
